<?xml version="1.0" standalone="no"?>
<!DOCTYPE svg PUBLIC "-//W3C//DTD SVG 20010904//EN"
 "http://www.w3.org/TR/2001/REC-SVG-20010904/DTD/svg10.dtd">
<svg version="1.0" xmlns="http://www.w3.org/2000/svg"
 width="1024.000000pt" height="1024.000000pt" viewBox="0 0 1024.000000 1024.000000"
 preserveAspectRatio="xMidYMid meet">
<metadata>
Created by potrace 1.14, written by Peter Selinger 2001-2017
</metadata>
<g transform="translate(0.000000,1024.000000) scale(0.100000,-0.100000)"
fill="#000000" stroke="none">
<path d="M2779 8266 c-2 -3 -3 -1205 -2 -2673 1 -1467 3 -2883 3 -3145 l0
-478 494 0 495 0 0 1188 c0 653 0 1202 1 1220 l0 32 387 -2 387 -3 63 -90 c34
-49 67 -97 73 -105 6 -8 46 -67 89 -130 44 -63 88 -126 98 -140 11 -14 49 -68
85 -120 35 -52 96 -140 134 -195 39 -55 101 -145 139 -200 38 -55 108 -155
155 -222 254 -364 796 -1146 805 -1160 6 -10 16 -23 22 -31 7 -7 16 -20 21
-28 7 -12 91 -14 614 -12 l606 3 -254 350 c-140 193 -294 404 -342 470 -48 66
-90 125 -95 130 -35 43 -1132 1560 -1130 1563 1 3 42 20 90 40 346 138 644
385 851 706 222 343 328 782 288 1191 -9 88 -9 90 -21 155 -12 69 -12 71 -30
140 -9 36 -18 70 -19 77 -1 7 -5 16 -9 19 -4 4 -7 14 -7 23 0 13 -24 78 -65
176 -5 11 -9 22 -10 25 -3 10 -62 126 -85 165 -97 172 -238 348 -384 484 -21
20 -44 41 -50 46 -94 88 -302 226 -449 298 -174 86 -255 117 -417 160 -124 33
-191 46 -355 66 -70 9 -2167 15 -2176 7z m2156 -989 c17 -4 53 -12 80 -18 369
-81 680 -356 784 -694 90 -290 46 -586 -125 -846 -152 -230 -391 -394 -684
-466 -55 -14 -155 -17 -645 -20 l-580 -4 -1 1031 0 1031 571 -4 c313 -2 584
-7 600 -10z"/>
</g>
</svg>
